<svg xmlns="http://www.w3.org/2000/svg" width="900" height="1200" viewBox="0 0 900 1200">
  <rect width="100%" height="100%" fill="#f7fff7"/>
  <defs>
    <linearGradient id="lg" x1="0" x2="1">
      <stop offset="0" stop-color="#eaf6ec"/>
      <stop offset="1" stop-color="#d9efe0"/>
    </linearGradient>
  </defs>
  <g transform="translate(40,40)">
    <rect x="0" y="0" width="820" height="1120" rx="18" fill="#ffffff" stroke="#e6f2ea"/>

    <g transform="translate(40,60)">
      <text x="0" y="0" font-family="Inter, Arial" font-size="22" fill="#0b5a2a">Building Resilient Communities</text>
      <text x="0" y="36" font-family="Inter, Arial" font-size="14" fill="#365">A youth-led climate resilience and environmental sustainability programme under CAN-K.</text>

      <rect x="0" y="80" width="740" height="420" rx="12" fill="url(#lg)"/>
      <!-- stylised gate -->
      <g transform="translate(160,120)">
        <rect x="0" y="0" width="420" height="300" rx="12" fill="#f8fff8"/>
        <path d="M40 200 L210 40 L380 200 Z" fill="#0b5a2a" opacity="0.06"/>
        <g transform="translate(160,20)">
          <path d="M40 8 C30 8 22 16 20 28 L20 90 C20 104 30 114 40 114 C50 114 64 104 64 90 L64 28 C62 16 54 8 40 8 Z" fill="#0e7a3a"/>
        </g>
        <g opacity="0.8" fill="#9fd9b6">
          <rect x="24" y="220" width="120" height="8" rx="4"/>
          <circle cx="260" cy="230" r="6"/>
        </g>
      </g>

      <g transform="translate(40,540)" fill="#0e7a2a">
        <path d="M0 0 C30 -30 80 -30 120 0 C160 30 220 30 260 0 C300 -30 360 -30 400 0 L400 120 L0 120 Z"/>
      </g>

      <rect x="0" y="700" width="740" height="260" rx="12" fill="#fff" opacity="0.95"/>
      <text x="20" y="760" font-family="Inter, Arial" font-size="18" fill="#083b1a">Get Involved</text>
      <text x="20" y="792" font-family="Inter, Arial" font-size="14" fill="#365">Volunteer • Partner • Support</text>
    </g>
  </g>
</svg>